<svg width="60" height="60" viewBox="0 0 60 60" fill="none" xmlns="http://www.w3.org/2000/svg">
<g clip-path="url(#clip0_161_917)">
<path d="M60 16.1091L25.1536 39.8641V55.2098L60 30.9582V16.1091ZM22.3978 39.3297L0.0573221 30.3659L0 47.3664L22.3978 55.761V39.3297ZM23.925 36.7948L59.0624 12.7971L36.0627 4.23889L0.791732 27.2223L23.925 36.7948ZM34.403 24.2015L25.2099 30.4936C23.8817 31.4024 21.8718 31.6648 20.7556 31.0828L18.7962 30.0602C17.7467 29.5133 17.9622 28.3888 19.2447 27.5479L28.1497 21.7104C29.328 20.9374 31.1739 20.6563 32.3031 21.0826L34.4066 21.8779C35.6022 22.331 35.6163 23.3712 34.403 24.2015ZM46.2853 11.7898L48.5069 12.3708C49.7684 12.7011 49.9536 13.5584 48.8887 14.2881L40.8447 19.793C39.6864 20.586 37.7408 20.8776 36.5332 20.4443L34.4098 19.6829C33.2701 19.2742 33.2852 18.3442 34.4131 17.6051L42.2616 12.4598C43.3021 11.777 45.0906 11.4773 46.2853 11.7898ZM25.6654 15.0283L33.2505 10.2976C34.26 9.66869 35.9045 9.38061 36.9491 9.6535L38.8885 10.1607C39.9873 10.4488 40.0634 11.223 39.0292 11.8918L31.2462 16.9269C30.1287 17.6496 28.3532 17.9319 27.3084 17.5582L25.4672 16.8987C24.479 16.5428 24.5785 15.7065 25.6654 15.0283ZM11.1057 24.1078L19.6382 18.7869C20.7708 18.0807 22.4622 17.8078 23.4412 18.1778L25.2625 18.8666C26.2957 19.2565 26.2113 20.1853 25.0448 20.9408L16.2345 26.6401C14.9661 27.4611 13.1389 27.72 12.1832 27.221L10.5012 26.3438C9.59717 25.8728 9.87937 24.8726 11.1057 24.1078Z" fill="#474747"/>
</g>
<defs>
<clipPath id="clip0_161_917">
<rect width="60" height="60" fill="white"/>
</clipPath>
</defs>
</svg>
