<svg width="60" height="60" viewBox="0 0 60 60" fill="none" xmlns="http://www.w3.org/2000/svg">
<path d="M23.0193 38.3431C22.6541 38.3431 22.2977 38.2692 21.9487 38.1643V49.7852C21.9485 50.1164 22.0508 50.4394 22.2416 50.7101C22.4323 50.9807 22.7021 51.1857 23.014 51.297C23.1907 51.3613 23.3737 51.3913 23.5547 51.3913C24.0258 51.3913 24.4851 51.1836 24.7956 50.8034L35.0237 38.3431H30.8684L25.1607 45.297V38.3431H23.0193ZM15.2345 27.6365L17.6949 28.5562L17.1937 24.9395L16.0878 24.5262C15.9076 24.4589 15.7169 24.4245 15.5246 24.4246H1.60602C0.719485 24.4246 0 25.1439 0 26.0305C0 26.917 0.719485 27.6365 1.60602 27.6365H15.2345ZM60 43.8303C60 39.5198 56.5053 36.0251 52.1948 36.0251C50.1873 36.0251 48.3619 36.7896 46.9785 38.0359L42.3211 34.6375L41.2151 35.7821C40.8692 36.1323 40.4206 36.5059 39.9197 36.8603L45.0824 40.6279C44.6412 41.6053 44.3895 42.6878 44.3895 43.8303C44.3895 48.1408 47.8842 51.6355 52.1947 51.6355C56.5052 51.6355 60 48.1408 60 43.8303ZM52.1948 46.4823C50.7494 46.4823 49.5792 45.3249 49.5481 43.8869C49.5481 43.8677 49.5427 43.8494 49.5427 43.8302C49.5427 42.6268 50.35 41.6213 51.4484 41.2981C51.6861 41.2274 51.9335 41.1782 52.1947 41.1782C53.6593 41.1782 54.8468 42.3656 54.8468 43.8303C54.8468 45.295 53.6594 46.4823 52.1948 46.4823ZM40.6509 33.4181L51.4923 22.1997C52.3201 21.3624 52.0341 21.2126 50.8564 21.2126H20.8778C19.7001 21.2126 18.8724 21.7651 19.0395 22.9311L19.4464 25.7812L19.9635 29.4043L20.5749 33.6806C20.6905 34.49 21.2601 35.3797 21.9882 35.855C22.3094 36.065 22.6584 36.202 23.0192 36.202H36.0459C36.3094 36.202 36.5985 36.1484 36.8939 36.065C37.3008 35.9504 37.7216 35.7694 38.1241 35.5499C38.7365 35.2168 39.305 34.8026 39.6915 34.4107L40.6509 33.4181ZM40.6852 11.5766H34.7965L33.0567 8.36456H29.4432L26.6327 13.7179H24.0899L21.9485 19.0712H48.7152L46.9753 15.8593H43.3618L40.6852 11.5766Z" fill="#474747"/>
</svg>
