<svg width="60" height="60" viewBox="0 0 60 60" fill="none" xmlns="http://www.w3.org/2000/svg">
<g clip-path="url(#clip0_161_926)">
<path d="M59.4737 56.8422H56.3157V53.6842H59.4737V50.5264H41.8937L32.4705 42.3274C32.541 42.18 32.6053 42.0297 32.6631 41.8769C33.3431 40.0842 33.2842 38.4916 34.6558 38.3989C36.2053 38.2948 36.1315 36.0399 33.9096 36.1053C33.0843 36.1295 32.1348 36.4505 31.0937 37.9916C30.7107 38.558 30.3864 39.3895 29.8527 40.0495L28.7822 39.1179C28.3864 38.7736 27.7959 38.7736 27.4011 39.1179L25.919 40.4073C25.1043 39.6536 24.7506 38.3569 24.7506 36.9348C24.7506 35.3242 25.6391 33.3915 27.2485 33.3915C28.8579 33.3915 30.0001 33.7147 30.0001 33.7147V26.3158H28.9475V0H26.8423V26.3158H25.7897V31.1915C22.6317 31.3884 21.497 33.8221 21.497 37.3116C21.497 39.3253 21.8728 41.4233 23.1224 42.8411L14.2905 50.5264H0.526291V53.6843H2.63156V56.8423H0.526291V60.0002H59.4737V56.8422ZM24.8958 44.0885C25.6106 44.3811 26.4569 44.5538 27.4769 44.5538C29.1675 44.5538 30.279 44.3053 31.0496 43.8812L38.6873 50.5264H17.4969L24.8958 44.0885Z" fill="#474747"/>
</g>
<defs>
<clipPath id="clip0_161_926">
<rect width="60" height="60" fill="white"/>
</clipPath>
</defs>
</svg>
