<svg width="60" height="60" viewBox="0 0 60 60" fill="none" xmlns="http://www.w3.org/2000/svg">
<g clip-path="url(#clip0_161_925)">
<path d="M2.70256 54.699L9.78416 59.6713C10.7662 60.3609 11.7291 59.9296 12.5809 58.7158L24.5611 39.9797L38.9686 39.7086L44.4799 31.8584L16.523 12.23L11.0118 20.08L15.8089 33.5173L2.0973 51.3557C1.24545 52.5695 1.72044 54.0094 2.70256 54.699ZM7.08873 51.9097C7.72391 51.0046 8.97182 50.7867 9.87703 51.4219C10.7822 52.0571 11 53.3049 10.3649 54.2102C9.72968 55.1144 8.48177 55.3332 7.57656 54.698C6.67247 54.0629 6.45356 52.8138 7.08873 51.9097ZM25.1108 0L17.7505 10.4836L45.7074 30.1121L47.6203 25.8668C47.1901 24.0426 46.523 21.8031 45.3925 21.4496L44.847 21.281C42.6235 20.6031 39.8555 19.7609 39.2951 17.42C39.0795 16.5179 37.9906 15.9959 36.4856 15.2744C36.3405 15.2049 36.1956 15.1348 36.0511 15.0641L34.6068 16.4358L35.4084 14.746C34.1393 14.1022 32.7291 13.274 31.431 11.9759C30.3379 10.8828 29.8844 9.77803 30.0819 8.69343C30.3573 7.1872 32.0663 5.51565 32.6854 5.17618L30.908 4.06915L25.954 8.9283L28.6558 2.48824L25.1108 0Z" fill="#474747"/>
<path d="M55.9658 23.1288C56.2614 21.1508 55.8259 18.7799 54.6678 16.0792C53.9685 14.4471 50.8078 13.0455 48.2929 12.7616C45.8484 12.4851 43.024 11.5062 42.6001 10.0107C42.4314 9.41402 41.6724 7.33669 38.9953 5.64583C38.3602 5.24552 37.7858 5.05017 37.2383 5.05017C36.2338 5.05017 35.4439 5.72375 34.6806 6.37489L34.4501 6.55629L34.2281 6.73132C34.2089 6.73992 32.438 7.56174 32.1988 8.88869C32.0686 9.60714 32.4241 10.3917 33.2524 11.2222C34.4415 12.4114 35.7213 13.1681 36.932 13.783C37.2677 13.9524 37.6053 14.1178 37.9449 14.2793C37.9673 14.29 37.9908 14.3017 38.0132 14.3124C39.6507 15.098 41.0651 15.7758 41.4003 17.1732C41.8187 18.9196 44.2622 19.6636 46.2253 20.2613L46.7793 20.4311C48.2236 20.8827 48.9889 22.787 49.5013 24.7096C49.6797 25.381 49.8291 26.0535 49.9636 26.6684C50.0992 27.2896 50.2166 27.8255 50.3297 28.1756C50.715 29.3723 50.2038 30.7173 49.6625 32.1411C49.3497 32.9653 49.0252 33.8172 48.88 34.6445C48.6857 35.7428 48.9632 36.8668 49.6197 37.6504C50.2762 38.4317 51.269 38.846 52.4902 38.846C54.466 38.846 55.4257 37.485 55.4257 34.6851C55.4257 33.6282 54.7351 31.8605 54.1256 30.301C53.879 29.668 53.6399 29.0574 53.4531 28.5129C53.0006 27.1967 53.8075 26.3439 54.5205 25.5924C55.148 24.9275 55.7981 24.2422 55.9658 23.1288ZM56.4237 54.8975C55.0157 54.4375 53.5651 54.2059 52.1122 54.2059C49.6677 54.2059 48.0431 54.8752 48.028 54.8826C46.8954 55.2178 46.2026 55.7664 46.2049 56.299C46.207 56.8285 46.8987 57.3664 47.9662 57.6717C48.8522 57.9237 50.354 58.0689 52.0897 58.0689C53.9076 58.0689 55.654 57.911 56.4342 57.674C57.4644 57.3612 58.3396 56.6876 58.345 56.203C58.3462 56.0441 58.2128 55.4793 56.4237 54.8975Z" fill="#474747"/>
</g>
<defs>
<clipPath id="clip0_161_925">
<rect width="60" height="60" fill="white"/>
</clipPath>
</defs>
</svg>
