<svg width="60" height="60" viewBox="0 0 60 60" fill="none" xmlns="http://www.w3.org/2000/svg">
<g clip-path="url(#clip0_161_931)">
<path d="M58.7127 2.2423C57.0154 -0.152318 53.6974 -0.718447 51.3029 0.978797L36.1872 11.6918C34.0114 13.2335 33.3662 16.1056 34.5349 18.4151L30.409 21.3466C30.2512 21.4593 30.1224 21.6081 30.0335 21.7805C29.9446 21.9529 29.898 22.144 29.8976 22.338V34.3582L27.0985 36.9289L17.1412 31.6527L0.132446 60L44.2736 46.0286L29.3764 38.1355L31.9337 35.7858C32.058 35.6724 32.1572 35.5342 32.225 35.3802C32.2928 35.2262 32.3277 35.0598 32.3274 34.8915V22.9648L36.0304 20.3321C37.837 21.8495 40.494 22.0403 42.5095 20.6128L57.6254 9.89977C60.02 8.20253 60.5861 4.88465 58.8887 2.49004L58.7127 2.2423Z" fill="#474747"/>
</g>
<defs>
<clipPath id="clip0_161_931">
<rect width="60" height="60" fill="white"/>
</clipPath>
</defs>
</svg>
