<svg width="60" height="60" viewBox="0 0 60 60" fill="none" xmlns="http://www.w3.org/2000/svg">
<path d="M1.52141 19.8304H12.2034V16.7796H1.52141C0.682432 16.7796 0 17.462 0 18.3019C0 19.148 0.682432 19.8304 1.52141 19.8304ZM25.4236 27.966V29.9999H22.3729V31.0168H25.9637L24.4067 36.6782V47.288H30.5084V36.6731L29.0939 31.0168H31.5254V29.9999H29.4914V27.966H25.4236ZM45.4087 34.0677L44.5322 30.7168L42.9193 27.966H39.3671L42.9151 34.0677H45.4087ZM13.7623 15.7627L13.2203 16.264V19.9026L14.0969 20.8473L15.9843 22.8812H22.3729V13.7288H15.9609L13.7623 15.7627Z" fill="#474747"/>
<path d="M51.8756 17.5251L55.9322 15.9254V12.7119H23.3898V24.6426L24.4067 25.8324L25.3606 26.9491H44.5972L45.48 30.3202L46.1837 33.008L46.4307 33.9538L46.4593 34.0677L46.7257 35.0846L48.7413 42.7849L45.7626 43.512V45.254H59.9999V40.0371L57.9009 40.5495L51.8756 17.5251ZM39.661 15.5084C39.6611 15.3062 39.7415 15.1122 39.8845 14.9692C40.0276 14.8262 40.2215 14.7458 40.4238 14.7457H46.017C46.2193 14.7458 46.4132 14.8262 46.5563 14.9692C46.6993 15.1122 46.7797 15.3062 46.7797 15.5084V16.0169C46.7797 16.2191 46.6993 16.4131 46.5563 16.5561C46.4132 16.6991 46.2193 16.7795 46.017 16.7796H40.4238C40.2215 16.7795 40.0276 16.6991 39.8845 16.5561C39.7415 16.4131 39.6611 16.2191 39.661 16.0169V15.5084ZM40.4237 19.8305C40.2214 19.8304 40.0275 19.75 39.8844 19.607C39.7414 19.464 39.661 19.27 39.6609 19.0678V18.5593C39.661 18.3571 39.7414 18.1631 39.8844 18.0201C40.0275 17.8771 40.2214 17.7967 40.4237 17.7966H46.0169C46.2192 17.7967 46.4131 17.8771 46.5561 18.0201C46.6992 18.1631 46.7796 18.3571 46.7796 18.5593V19.0678C46.7796 19.27 46.6992 19.464 46.5561 19.607C46.4131 19.75 46.2192 19.8304 46.0169 19.8305H40.4237Z" fill="#474747"/>
</svg>
