<svg width="60" height="60" viewBox="0 0 60 60" fill="none" xmlns="http://www.w3.org/2000/svg">
<path d="M25.6473 47.6717L25.2196 47.9428L24.1181 48.6389L22.6255 49.5828L21.1967 48.5477L19.214 47.1138L13.9147 50.464V54.0998L19.944 60L25.6473 54.0998V47.6717ZM33.4689 5.21444V0H6.09306V5.21444H13.9147V14.079L10.004 15.6433V16.9469L13.9147 15.3825V19.2934L10.004 20.8578V22.1613L13.9147 20.597V24.5079L10.004 26.0722V27.3757L13.8052 25.8558L14.1859 25.6147L15.3579 24.8729L17.4905 23.525L18.592 22.8275L18.6429 22.7962L21.8981 20.7378L22.9996 20.0403L23.0504 20.0091L25.6473 18.3665V15.9041L29.558 14.3398V13.0361L25.6473 14.6004V10.6897L29.558 9.12534V7.82166L25.6473 9.38599V5.21444H33.4689Z" fill="#474747"/>
<path d="M39.9323 7.79169L44.1129 14.4022L36.6197 19.1395L33.2083 16.6705L32.1066 17.368L35.5182 19.8371L32.2135 21.9267L29.1566 19.7146L28.8008 19.4577L27.6993 20.1538L27.8269 20.2464L31.1107 22.6241L29.558 23.6058L27.8061 24.7139L27.3185 24.3605L25.6473 23.1521L24.3932 22.2447L23.2917 22.941L25.6473 24.6461L25.9889 24.8925L26.7045 25.41L23.3986 27.5009L19.9857 25.0319L18.8841 25.7281L22.297 28.1971L18.9911 30.2881L15.5795 27.8177L14.4767 28.5152L17.8896 30.9842L14.5835 33.0752L13.9147 32.5902L12.5224 31.5826L11.3623 30.7431L11.172 30.6049L10.2503 31.1875L10.0705 31.3023L11.1929 32.1144L13.482 33.7715L10.1774 35.861L6.76446 33.3919L5.66295 34.0895L9.07572 36.5585L2.79494 40.5292L1.02994 48.7798L9.06536 50.4458L13.9147 47.3797L19.3117 43.9669L22.7246 46.4359L23.8261 45.7385L20.4146 43.2694L23.7192 41.1798L25.6473 42.5747L27.132 43.6489L28.2335 42.9513L26.4451 41.6568L24.8207 40.4823L25.6473 39.9609L28.1266 38.3926L29.2738 39.2217L29.558 39.4277L31.5395 40.8616L32.6412 40.1655L29.2283 37.6952L32.5342 35.6056L35.9458 38.0746L37.0473 37.3785L33.6357 34.9094L36.9405 32.8184L40.3534 35.2875L41.4549 34.5913L38.0432 32.1223L41.348 30.0312L44.7608 32.5016L45.8624 31.8041L42.4495 29.3352L45.7555 27.2442L49.1683 29.7146L50.2698 29.0171L46.857 26.548L50.3832 24.3189L54.5639 30.9295L58.9701 28.1423L44.3398 5.00452L39.9323 7.79169Z" fill="#474747"/>
</svg>
