<svg width="60" height="60" viewBox="0 0 60 60" fill="none" xmlns="http://www.w3.org/2000/svg">
<g clip-path="url(#clip0_161_924)">
<path d="M12.6604 43.4028L17.4766 34.7854L1.64998 24.6624C1.64998 24.6624 0.443897 36.2686 6.88052 39.9042C12.2817 42.9551 12.6604 43.4028 12.6604 43.4028Z" fill="#474747"/>
<path d="M34.0069 2.63864C24.9661 -0.520856 13.0543 -1.21934 10.7212 2.6345L33.2515 16.2733L16.2095 42.4383L24.8076 47.6435L38.1977 59.999L58.4396 60V47.8598L47.3919 38.9631C47.3919 38.9631 56.1554 10.3799 34.0069 2.63864ZM30.359 45.1581L20.7264 39.3266L26.9863 28.9863L36.619 34.8178L30.359 45.1581ZM20.1996 56.3166L24.1123 49.8546L18.2412 46.3001C18.2401 46.2992 15.7182 53.604 20.1996 56.3166Z" fill="#474747"/>
<path d="M25.5449 32.9444L26.7834 33.7231L26.1304 34.7871L24.8361 33.9779L24.3079 34.8448L25.5993 35.652L24.9463 36.7161L23.5729 35.8684L23.0449 36.7354L24.4163 37.5811L23.589 39.0318L29.359 42.5476L30.2163 41.1549L31.5081 41.9221L32.0362 41.0553L30.7474 40.29L31.3995 39.2258L32.677 40.0041L33.2052 39.1371L31.9305 38.3609L32.5836 37.2967L33.7045 37.9796L34.2326 37.1128L33.1146 36.4319L33.9501 35.0641L28.1913 31.531L27.3146 32.8581L26.0728 32.0775L25.5449 32.9444ZM5.18096 25.0806L15.0248 31.035L25.2513 25.241L25.6339 13.4936L15.7901 7.53918L5.5636 13.3332L5.18096 25.0806ZM15.2958 13.4428C18.6735 13.4967 21.368 16.2774 21.3142 19.6551C21.2603 23.0328 18.4797 25.7273 15.102 25.6735C11.7243 25.6197 9.02981 22.8389 9.08353 19.4613C9.13736 16.0846 11.9181 13.3901 15.2958 13.4428Z" fill="#474747"/>
</g>
<defs>
<clipPath id="clip0_161_924">
<rect width="60" height="60" fill="white"/>
</clipPath>
</defs>
</svg>
