<svg width="60" height="60" viewBox="0 0 60 60" fill="none" xmlns="http://www.w3.org/2000/svg">
<path d="M30.9467 20.5698C31.4074 20.0654 31.7155 19.3647 31.7155 18.4545C31.7155 17.8922 31.2599 17.4376 30.6986 17.4376C30.1373 17.4376 29.6817 17.8922 29.6817 18.4545C29.6817 18.8318 29.576 19.0626 29.4407 19.208L29.1966 18.9873C29.0003 18.8104 28.6983 18.8124 28.5061 18.9955L28.1634 19.3199C27.8227 19.1714 27.5584 18.8694 27.5584 18.2846C27.5584 17.3652 28.4706 17.1426 28.6424 17.1101C29.1336 17.0257 29.4915 16.6026 29.4915 16.1064V13.2203H30.6203L32.043 6.10164H30.5086V1.01685H29.4917V6.10153H28.4748V1.01685H27.4579V6.10153H25.9569L26.9657 13.2202H27.4579V15.3711C26.5426 15.787 25.5256 16.6799 25.5256 18.2836C25.5256 19.4155 25.9894 20.2239 26.6555 20.7477L8.83322 37.627H0V58.9828H60V37.627H49.8152L30.9467 20.5698ZM27.5939 21.2603C28.0058 21.4058 28.441 21.483 28.8702 21.483C29.2983 21.483 29.7224 21.3762 30.1139 21.1881L48.2989 37.6271H10.3128L27.5939 21.2603ZM3.0509 40.6779H4.06779V55.9321H3.0509V40.6779ZM6.10169 40.6779H8.13558V55.9321H6.10169V40.6779ZM10.1695 40.6779H12.2034V55.9321H10.1695V40.6779ZM14.2373 40.6779H16.2712V55.9321H14.2373V40.6779ZM18.3051 40.6779H20.339V55.9321H18.3051V40.6779ZM22.3729 40.6779H24.4068V55.9321H22.3729V40.6779ZM26.4407 40.6779H28.4745V55.9321H26.4407V40.6779ZM30.5084 40.6779H32.5423V55.9321H30.5084V40.6779ZM34.5762 40.6779H36.6101V55.9321H34.5762V40.6779ZM38.644 40.6779H40.6779V55.9321H38.644V40.6779ZM42.7118 40.6779H44.7457V55.9321H42.7118V40.6779ZM46.7796 40.6779H48.8135V55.9321H46.7796V40.6779ZM56.9491 55.9321H54.9152V40.6779H56.9491V55.9321ZM52.8813 55.9321H50.8474V40.6779H52.8813V55.9321Z" fill="#474747"/>
</svg>
