<svg width="60" height="60" viewBox="0 0 60 60" fill="none" xmlns="http://www.w3.org/2000/svg">
<g clip-path="url(#clip0_161_929)">
<path d="M35.5214 52.4511C36.4081 52.4511 36.6694 50.8414 35.5214 50.8414C34.5046 50.8414 33.1064 51.3497 32.2798 52.9381C31.4531 54.5264 30.3092 55.0988 28.9751 55.0988C27.641 55.0988 25.099 54.4632 25.099 51.2857C25.099 48.1082 26.735 47.0272 28.3162 47.0272C29.8974 47.0272 32.0734 47.4726 32.0734 47.4726L31.9911 41.6899H28.1363L28.1811 43.5009C20.3007 43.5009 19.3947 48.6328 19.3947 51.365C19.3947 54.0971 20.6576 59.9999 27.6483 59.9999C34.6391 59.9999 34.3807 53.2908 34.3807 53.2908C34.3807 53.2908 34.2076 52.4511 35.5214 52.4511ZM34.5045 40.6731V37.6226H26.3699V40.6731H31.9767H34.5045ZM23.3194 0H26.37V13.2187H23.3194V0ZM35.5214 0H38.5719V13.2187H35.5214V0ZM40.6055 25.8355V14.2356H20.2688V25.8376L24.2456 36.6058H36.5055L40.6055 25.8355ZM30.5083 19.7651C31.6299 19.7651 32.542 20.6772 32.542 21.7988C32.542 22.9203 31.6299 23.8324 30.5083 23.8324C29.3868 23.8324 28.4747 22.9203 28.4747 21.7988C28.4747 20.6772 29.3868 19.7651 30.5083 19.7651Z" fill="#474747"/>
</g>
<defs>
<clipPath id="clip0_161_929">
<rect width="60" height="60" fill="white"/>
</clipPath>
</defs>
</svg>
