<svg width="60" height="60" viewBox="0 0 60 60" fill="none" xmlns="http://www.w3.org/2000/svg">
<path d="M8.5568 30.5603C8.5568 42.6603 18.401 52.5046 30.501 52.5046C42.601 52.5046 52.4454 42.6603 52.4454 30.5603C52.4454 18.4603 42.6009 8.61597 30.5009 8.61597C18.401 8.61597 8.5568 18.4603 8.5568 30.5603ZM44.5081 30.5603C44.5081 38.2968 38.2373 44.5675 30.5009 44.5675C22.7645 44.5675 16.4937 38.2967 16.4937 30.5603C16.4937 22.8239 22.7645 16.5531 30.5009 16.5531C38.2374 16.5531 44.5081 22.8239 44.5081 30.5603Z" fill="#474747"/>
<path d="M15.0001 3.6665L0 30L15.0001 56.3336H45.0002L60 30L45.0002 3.6665H15.0001ZM53.5657 30.5603C53.5657 43.2788 43.2194 53.6251 30.5008 53.6251C17.7824 53.6251 7.43616 43.2788 7.43616 30.5603C7.43616 17.8418 17.7825 7.4955 30.5008 7.4955C43.2194 7.4955 53.5657 17.8418 53.5657 30.5603Z" fill="#474747"/>
</svg>
