<svg width="60" height="60" viewBox="0 0 60 60" fill="none" xmlns="http://www.w3.org/2000/svg">
<path d="M13.3737 55.4343C13.3737 57.956 20.817 60 29.9994 60C39.1819 60 46.6252 57.956 46.6252 55.4343C46.6252 54.7283 46.0234 54.0616 44.9801 53.4645L48.5208 29.5613C43.3836 31.6459 35.5008 32.3195 29.9994 32.3195C24.4414 32.3195 16.4554 31.6297 11.3228 29.494L14.8855 53.5399C13.9244 54.1173 13.3737 54.7572 13.3737 55.4343Z" fill="#474747"/>
<path d="M52.5358 22.9712C52.5358 21.4361 51.2755 20.1457 49.1887 19.1046C49.0963 18.6335 48.9951 18.1643 48.8849 17.697C47.3497 11.2346 42.8282 0 29.9276 0C17.4942 0 12.9806 10.8067 11.3726 17.5869C11.2631 18.0483 11.1627 18.5118 11.0712 18.977C8.82658 20.039 7.46428 21.3723 7.46428 22.9712C7.46428 24.5827 8.84974 25.9241 11.1245 26.9897C15.3667 28.9758 22.7115 29.9994 29.9995 29.9994C37.2016 29.9994 44.456 28.9988 48.7203 27.0593C51.0866 25.982 52.5358 24.6175 52.5358 22.9712ZM45.613 24.7821C43.1458 26.0551 37.0927 26.956 29.9995 26.956C22.9063 26.956 16.8531 26.0551 14.3859 24.7821C13.6242 24.389 13.1929 23.9623 13.1929 23.5137C13.1929 21.6123 20.7175 20.0715 29.9984 20.0715C39.2806 20.0715 46.8038 21.6123 46.8038 23.5137C46.8061 23.9625 46.3747 24.3891 45.613 24.7821ZM29.9995 15.9417C23.377 15.9417 16.7081 16.7856 12.3616 18.4309C12.4593 17.985 12.5652 17.5409 12.6792 17.0988C14.3534 10.6294 18.7173 1.15934 29.9263 1.15934C37.0057 1.15934 42.274 4.67117 45.5852 11.5974C46.5138 13.5405 47.1503 15.4952 47.5851 17.1891C47.6993 17.6357 47.8045 18.0844 47.9006 18.5352C43.5645 16.8229 36.7598 15.9417 29.9995 15.9417Z" fill="#474747"/>
</svg>
