<svg width="60" height="60" viewBox="0 0 60 60" fill="none" xmlns="http://www.w3.org/2000/svg">
<g clip-path="url(#clip0_161_909)">
<path d="M22.2859 36.0979V21.2181H11.2788L1.05313 34.1956V39.3594C1.22299 39.3254 1.39286 39.2916 1.59669 39.2916H7.9835C9.44431 39.2916 10.6333 40.4806 10.6333 41.9414V42.1452C11.075 41.024 11.7884 40.0388 12.7057 39.2916C13.9626 38.2723 15.5593 37.6269 17.2919 37.6269C19.0245 37.6269 20.6212 38.2384 21.8782 39.2916C23.1692 40.3446 24.0524 41.8395 24.3582 43.5381H35.1274C35.7389 40.1748 38.6606 37.6269 42.1937 37.6269C45.7268 37.6269 48.6483 40.1748 49.2597 43.5381H53.0986V36.098H34.0065V39.6312C34.0065 41.1939 32.7154 42.4848 31.1527 42.4848H30.4393C28.8765 42.4848 27.5856 41.1939 27.5856 39.6312V36.098H22.2859V36.0979ZM7.43994 31.7496L13.2832 24.4115H19.1264V32.9046H7.43994V31.7496Z" fill="#474747"/>
<path d="M31.1527 41.3977C32.138 41.3977 32.9192 40.6164 32.9192 39.6312V22.9848C32.9192 21.9996 32.138 21.2183 31.1527 21.2183H30.4392C29.454 21.2183 28.6727 22.0336 28.6727 22.9848V39.5973C28.6727 40.5825 29.454 41.3639 30.4392 41.3639H31.1527V41.3977Z" fill="#474747"/>
<path d="M57.0736 9.93934C56.9376 9.32783 56.2923 8.92017 55.6806 9.09003C55.0691 9.22592 54.6614 9.87139 54.8315 10.4829L55.1032 11.638L34.8217 8.92017L23.373 17.753V18.0248L27.6195 32.0214V22.9847C27.6195 21.422 28.9104 20.1311 30.4732 20.1311H31.1526C32.7153 20.1311 34.0063 21.422 34.0063 22.9847V33.1085L41.1405 34.1956L57.4133 21.4899L57.7191 22.8488C57.8548 23.4603 58.5003 23.868 59.1118 23.6982C59.7233 23.5623 60.1312 22.9168 59.9611 22.3053L57.0736 9.93934ZM17.2919 51.0799C20.6552 51.0799 23.407 48.3281 23.407 44.9649C23.407 44.5232 23.373 44.1157 23.2711 43.7079C22.8634 41.8394 21.6064 40.2768 19.9078 39.4613C19.1264 39.0877 18.2432 38.8498 17.2919 38.8498C16.3407 38.8498 15.4574 39.0537 14.6761 39.4613C12.9774 40.2768 11.7205 41.8394 11.3128 43.7079C11.2109 44.1157 11.1769 44.5572 11.1769 44.9649C11.1769 48.3281 13.9287 51.0799 17.2919 51.0799ZM17.2919 42.5528C18.1412 42.5528 18.8886 42.9945 19.3303 43.6739C19.5681 44.0476 19.704 44.4892 19.704 44.9309C19.704 46.2558 18.6169 47.3429 17.2919 47.3429C15.967 47.3429 14.8799 46.2558 14.8799 44.9309C14.8799 44.4553 15.0158 44.0476 15.2536 43.6739C15.6613 43.0283 16.4087 42.5528 17.2919 42.5528ZM48.3088 44.9649C48.3088 44.5232 48.2747 44.1157 48.1728 43.7079C47.5954 40.9561 45.1493 38.8839 42.1938 38.8839C39.2381 38.8839 36.7922 40.9562 36.2146 43.7079C36.1126 44.1157 36.0788 44.5572 36.0788 44.9649C36.0788 48.3281 38.8304 51.0799 42.1938 51.0799C45.557 51.0799 48.3088 48.3281 48.3088 44.9649ZM39.7816 44.9649C39.7816 44.4892 39.9176 44.0816 40.1552 43.7079C40.5629 43.0284 41.3444 42.5868 42.1937 42.5868C43.0428 42.5868 43.7903 43.0284 44.2319 43.7079C44.4698 44.0816 44.6055 44.5233 44.6055 44.9649C44.6055 46.2899 43.5185 47.377 42.1936 47.377C40.8687 47.3769 39.7816 46.2898 39.7816 44.9649ZM7.98351 45.6443C8.19326 45.6446 8.401 45.6034 8.59483 45.5233C8.78867 45.4431 8.96478 45.3255 9.1131 45.1772C9.26142 45.0289 9.37902 44.8528 9.45917 44.6589C9.53933 44.4651 9.58046 44.2574 9.58021 44.0476V41.9075C9.58046 41.6977 9.53933 41.49 9.45917 41.2961C9.37902 41.1023 9.26142 40.9262 9.1131 40.7779C8.96478 40.6295 8.78867 40.5119 8.59483 40.4318C8.401 40.3516 8.19326 40.3105 7.98351 40.3108H1.5967C1.39287 40.3108 1.22301 40.3447 1.05314 40.4127C0.441642 40.6164 1.11797e-06 41.2279 1.11797e-06 41.9073V44.0136C-0.000247228 44.2234 0.0408824 44.4311 0.121035 44.625C0.201187 44.8188 0.318788 44.9949 0.467104 45.1433C0.615419 45.2916 0.791536 45.4092 0.985369 45.4894C1.1792 45.5695 1.38695 45.6107 1.5967 45.6104H7.98351V45.6443Z" fill="#474747"/>
</g>
<defs>
<clipPath id="clip0_161_909">
<rect width="60" height="60" fill="white"/>
</clipPath>
</defs>
</svg>
