<svg width="60" height="60" viewBox="0 0 60 60" fill="none" xmlns="http://www.w3.org/2000/svg">
<g clip-path="url(#clip0_161_912)">
<path d="M13.1908 34.5858C9.04776 34.5858 5.69083 37.9433 5.69083 42.0858C5.69083 46.23 9.04776 49.5858 13.1908 49.5858C17.3339 49.5858 20.6908 46.23 20.6908 42.0858C20.6908 37.9464 17.3339 34.5858 13.1908 34.5858ZM13.1908 44.5653C12.8655 44.5652 12.5433 44.501 12.2428 44.3764C11.9423 44.2518 11.6692 44.0692 11.4393 43.8391C10.9748 43.3743 10.7141 42.744 10.7143 42.087C10.7145 41.4299 10.9758 40.7999 11.4406 40.3354C11.9054 39.871 12.5356 39.6102 13.1927 39.6104C13.8497 39.6107 14.4798 39.8719 14.9442 40.3367C15.4087 40.8015 15.6694 41.4318 15.6692 42.0888C15.6689 42.7459 15.4077 43.3759 14.9429 43.8404C14.4781 44.3048 13.8479 44.5656 13.1908 44.5653ZM38.5714 16.8429V32.1435C38.5714 32.1435 38.9816 32.0431 41.048 32.0431C45.6527 32.0431 47.9908 34.3047 49.1112 36.0527C49.4102 35.7388 49.7697 35.4887 50.168 35.3175C50.5663 35.1463 50.9951 35.0576 51.4286 35.0566H58.9286V23.8072L54.3747 16.8429H38.5714ZM55.7143 28.628H47.1429V20.0566H53.5714L55.7143 23.4723V28.628Z" fill="#474747"/>
<path d="M3.14694 27.5565C3.14694 27.5565 20.8255 30.8357 23.1698 39.3423H31.271C31.271 39.3423 32.2769 33.9851 36.4286 32.5139V14.7H55.279L58.3929 10.4143H34.2857L31.3396 16.8429H0V21.1286H3.21429L3.14694 27.5565ZM51.4286 37.1994C50.9302 37.1994 50.5255 37.5496 50.4098 38.0125C50.3884 38.0994 50.3571 38.179 50.3571 38.2708V40.4137C50.3571 41.0063 50.8365 41.4851 51.4286 41.4851H58.9286C59.2127 41.4851 59.4853 41.3722 59.6862 41.1713C59.8871 40.9704 60 40.6978 60 40.4137V38.2708C60 37.68 59.5194 37.1994 58.9286 37.1994H51.4286ZM41.048 34.5857C36.9043 34.5857 33.548 37.9433 33.548 42.0857C33.548 46.23 36.9043 49.5857 41.048 49.5857C45.1916 49.5857 48.548 46.23 48.548 42.0857C48.548 41.9841 48.5357 41.8867 48.5339 41.7863C48.5115 41.1348 48.4043 40.4889 48.2149 39.8651C47.2671 36.8094 44.4178 34.5857 41.048 34.5857ZM41.048 44.5653C40.7226 44.5652 40.4005 44.501 40.0999 44.3764C39.7994 44.2518 39.5264 44.0692 39.2964 43.839C39.0664 43.6089 38.8841 43.3357 38.7597 43.0351C38.6353 42.7345 38.5713 42.4123 38.5714 42.0869C38.5715 41.7616 38.6357 41.4395 38.7604 41.1389C38.885 40.8384 39.0676 40.5654 39.2977 40.3354C39.5278 40.1054 39.801 39.923 40.1017 39.7987C40.4023 39.6743 40.7244 39.6103 41.0498 39.6104C41.7069 39.6107 42.3369 39.8719 42.8013 40.3367C43.2658 40.8015 43.5266 41.4317 43.5263 42.0888C43.5261 42.7458 43.2648 43.3759 42.8 43.8403C42.3353 44.3048 41.705 44.5656 41.048 44.5653Z" fill="#474747"/>
</g>
<defs>
<clipPath id="clip0_161_912">
<rect width="60" height="60" fill="white"/>
</clipPath>
</defs>
</svg>
