<svg width="60" height="60" viewBox="0 0 60 60" fill="none" xmlns="http://www.w3.org/2000/svg">
<g clip-path="url(#clip0_161_908)">
<path d="M37.2619 32.9073H33.6945C33.7684 33.1913 33.8434 34.0888 33.8538 34.1511C34.1558 35.8773 33.0789 36.7566 31.9567 37.1302C27.7295 38.5396 26.4584 32.9073 26.4584 32.9073H25.161V41.3531H32.5511V43.4646H52.6098V41.3531H59.9998V21.2944H45.8332L37.2619 32.9073ZM54.7214 32.9073H44.8123L49.1407 26.573H54.7214V32.9073ZM56.305 45.576H27.8004C25.4682 45.576 23.0496 46.9391 23.0496 49.2711V53.494C23.0496 55.826 25.4683 58.2447 27.8004 58.2447H56.305C58.637 58.2447 60 55.826 60 53.494V49.2711C60 46.9391 58.637 45.576 56.305 45.576ZM55.7771 54.0218H27.2725V49.7989H55.7771V54.0218ZM9.0655 33.5831C8.94096 33.8829 8.77525 34.1584 8.55875 34.3896C8.07099 34.9079 7.38263 35.228 6.6373 35.228C6.396 35.2277 6.15588 35.1942 5.92366 35.1286C5.2438 34.9376 4.67998 34.4943 4.33585 33.8789C4.0445 33.3605 3.95055 32.7733 4.0392 32.1948C4.05609 32.0872 4.06669 31.9785 4.09727 31.8718L4.2504 31.4696L3.77953 31.7356C2.05129 32.7119 -0.00638844 34.8532 1.49076e-05 39.511C0.00950952 47.1206 7.12826 48.3461 7.20003 48.3589L7.57904 48.4191L9.36425 44.9068L9.0655 33.5831ZM8.26 49.7831L11.0449 51.2907L12.05 49.4336L10.7726 45.14L8.26 49.7831Z" fill="#474747"/>
<path d="M29.3322 34.9682C29.5286 35.2976 30.1758 36.1548 31.4785 35.4876C32.1057 35.1668 32.1057 34.5153 32.1057 34.1585C32.1057 33.1133 25.1611 12.5847 25.1611 12.5847L20.574 17.5076L29.3322 34.9682ZM23.4824 3.37672L23.4846 2.99881L21.2897 1.75513L20.8548 2.0011L19.9818 2.49626L19.19 2.94493L18.6157 3.27007L14.8858 5.38262L5.30509 30.6081L5.09919 31.1487C4.99894 31.5119 5.04961 31.9384 5.25651 32.3078C5.35766 32.4896 5.49393 32.6494 5.6574 32.7781C5.82086 32.9068 6.00827 33.0017 6.20873 33.0573C7.03642 33.2906 7.93377 32.7788 8.16175 31.9626L8.19454 31.894L8.23881 31.7999L19.3556 16.0856L19.705 15.5915L20.0544 15.0975L23.4454 10.3045L23.4824 3.37672ZM19.4865 8.88028C18.6176 8.88028 17.9124 8.17613 17.9124 7.30616C17.9124 6.43729 18.6165 5.73204 19.4865 5.73204C20.3565 5.73204 21.0606 6.43619 21.0606 7.30616C21.0606 8.17503 20.3555 8.88028 19.4865 8.88028Z" fill="#474747"/>
</g>
<defs>
<clipPath id="clip0_161_908">
<rect width="60" height="60" fill="white"/>
</clipPath>
</defs>
</svg>
