<svg width="60" height="60" viewBox="0 0 60 60" fill="none" xmlns="http://www.w3.org/2000/svg">
<g clip-path="url(#clip0_161_911)">
<path d="M60 54.5775V50.7414C60 48.134 58.4761 46.6102 55.8688 46.6102H29.9015C26.3971 46.6102 24.59 48.2698 24.59 50.7414V55.7213C24.59 58.3027 26.3239 59.594 29.9015 59.594H55.8689C58.4761 59.594 60 57.8601 60 54.5775ZM55.2787 54.8726H29.3112V51.3316H55.2787V54.8726Z" fill="#474747"/>
<path d="M39.9342 19.4625V30.7607L41.4381 34.8069H38.9075L14.2171 0.405945L8.77689 3.68731L9.24545 4.51V36.1123L8.59039 36.2209L8.06517 36.2575V36.333C3.36394 37.3565 0 41.6128 0 46.661C0 52.4977 4.81577 57.2475 10.7339 57.2475C16.5459 57.2475 21.0986 52.5981 21.0986 46.661C21.0986 41.0095 17.2211 36.7744 11.6062 36.1702V8.80402L12.7865 11.0301L13.9668 13.2563L28.1308 40.5162V41.889H32.8522V44.2497H50.5572V41.889H57.6391V19.4625H39.9342ZM13.8135 9.79087L11.7762 5.92171L14.9525 3.8337L13.8135 9.79087ZM16.5754 6.24388L18.8394 10.172L15.1851 12.5257L16.5754 6.24388ZM19.0329 18.6753L16.9377 14.7824L20.3808 12.5433L19.0329 18.6753ZM21.8362 14.5441L24.3751 18.2467L20.5579 20.6912L21.8362 14.5441ZM21.4443 23.5123L25.7101 20.5897L23.2809 27.0957L21.4443 23.5123ZM27.3991 22.4015L29.7231 25.6003L29.7373 25.6204L24.9216 28.7543L27.3991 22.4015ZM27.7579 34.736L25.6994 31.1053L30.8066 27.4581L27.7579 34.736ZM29.3609 37.3152L32.8523 29.7905L35.6923 33.6632L29.3609 37.3152ZM52.918 31.2659H44.6556V24.1839H52.918V31.2659Z" fill="#474747"/>
</g>
<defs>
<clipPath id="clip0_161_911">
<rect width="60" height="60" fill="white"/>
</clipPath>
</defs>
</svg>
