<svg width="60" height="60" viewBox="0 0 60 60" fill="none" xmlns="http://www.w3.org/2000/svg">
<path d="M31.5254 0V1.04135L2.60542 10.6058L1.01691 10.7878V19.3221H5.0847V32.0685L3.70877 33.5593L4.91997 42.7118H6.1017V45.4454C6.1017 45.4454 4.60581 45.5725 4.60581 49.0535C4.60581 51.3559 5.97461 52.1318 8.40008 52.1318C11.0909 52.1318 11.5811 50.6929 11.5811 48.5735C11.5811 48.5735 10.7422 50.1651 8.53844 50.1651C6.97439 50.1651 6.73744 49.2722 6.73744 48.5735C6.73744 47.76 6.86453 46.8335 9.1527 46.8335V42.7118H10.37L11.5811 33.5593L10.1696 32.0715V19.3221H17.2883V23.6868L20.3615 28.4747H26.4409V48.8135H21.3562V60H45.7629V48.8135H40.6779V19.3221H46.7796V28.4745H57.9661V19.3221H58.983V10.8194L57.5429 10.6027L36.6101 1.28851V0H31.5254ZM37.627 25.682V30.5084H32.8636L37.627 25.682ZM34.4958 34.5762L29.4914 39.3183V34.5762H34.4958ZM29.4914 28.3292V23.3899H34.568L29.4914 28.3292ZM29.4914 11.1865H34.9159L30 16.2712H29.4915L29.4914 11.1865ZM29.4914 44.7457H33.5592L30.5083 47.7966H29.4914V44.7457ZM37.627 40.6779H34.1461L37.627 36.9894V40.6779ZM37.627 16.2712H33.1779L37.627 11.6319V16.2712ZM37.627 47.7966H34.2375L37.627 44.576V47.7966ZM31.5254 3.18309V7.28034L12.5339 9.46376L31.5254 3.18309ZM6.20443 34.4492C6.20443 33.6539 6.84911 33.0081 7.64544 33.0081C8.44177 33.0081 9.08645 33.6528 9.08645 34.4492C9.08645 35.2455 8.44177 35.8902 7.64544 35.8902C6.84911 35.8901 6.20443 35.2443 6.20443 34.4492ZM9.15249 30.9997L8.68679 30.5084H6.52581L6.1017 30.967V19.322H9.1526V30.9997H9.15249ZM10.1695 17.2881H3.05091V12.602L26.4408 9.85725V17.2881H10.1695ZM40.6779 17.2881V10.4887L40.9342 10.2233L56.9491 12.5704V17.288L40.6779 17.2881ZM49.983 9.46578L36.6101 7.45528V3.51564L49.983 9.46578Z" fill="#474747"/>
</svg>
