<svg width="60" height="60" viewBox="0 0 60 60" fill="none" xmlns="http://www.w3.org/2000/svg">
<g clip-path="url(#clip0_161_914)">
<path d="M59.315 54.9147V51.026C59.315 48.3828 57.7701 46.8381 55.1271 46.8381H28.8034C25.2509 46.8381 23.4191 48.5205 23.4191 51.026V56.0741C23.4191 58.691 25.1767 60 28.8034 60H55.1271C57.7701 60 59.315 58.2423 59.315 54.9147ZM54.5288 55.2139H28.2052V51.6242H54.5288V55.2139ZM38.974 19.318V30.7712L40.4984 34.8728H37.9331L12.904 0L7.38913 3.32638L9.06071 6.25661V21.7109H7.29466L8.48162 30.0867H9.06071V32.6174C7.98386 33.1068 6.78727 34.1574 6.78727 36.0443C6.78727 37.3114 7.28152 38.2364 8.00413 38.8538L1.5154 44.4452H3.34852L9.09549 39.4928C9.61602 39.6962 10.1723 39.8086 10.7228 39.8086C11.2756 39.8086 11.8248 39.6614 12.3201 39.3946L18.5505 44.4451H20.4183L20.4314 44.4283L13.2642 38.6191C13.75 38.0339 14.0719 37.2491 14.0719 36.2451C14.072 36.088 14.041 35.9324 13.9809 35.7872C13.9208 35.642 13.8327 35.5101 13.7216 35.399C13.6105 35.2879 13.4785 35.1998 13.3334 35.1396C13.1882 35.0795 13.0326 35.0486 12.8755 35.0486C12.7183 35.0486 12.5627 35.0795 12.4175 35.1396C12.2724 35.1997 12.1404 35.2878 12.0293 35.399C11.9182 35.5101 11.8301 35.642 11.77 35.7872C11.7099 35.9324 11.6789 36.088 11.679 36.2451C11.679 36.6748 11.5629 36.9439 11.411 37.1175L11.0831 36.8518C10.8594 36.6712 10.5351 36.6735 10.3162 36.8639L9.86753 37.2504C9.47976 37.0708 9.1807 36.7191 9.1807 36.0454C9.1807 34.9637 10.254 34.7018 10.4563 34.6634C11.033 34.5641 11.4541 34.0664 11.4541 33.4824V30.0866H12.7822L14.4562 21.7108H12.6504V13.0264L27.0087 40.6602V42.0519H31.7948V44.4449H49.7427V42.0519H56.9218V19.318H38.974ZM28.624 25.54L28.6384 25.5604L23.7565 28.7372L26.2668 22.2974L28.624 25.54ZM11.4538 21.7111H10.2573V8.51328L11.4538 10.7699V21.7111ZM12.4947 9.51367L10.4296 5.59143L13.6495 3.47478L12.4947 9.51367ZM15.2947 5.91802L17.5896 9.90007L13.8852 12.286L15.2947 5.91802ZM15.6619 14.5737L19.1522 12.3039L17.7858 18.5198L15.6619 14.5737ZM20.6276 14.3321L23.2013 18.0855L19.3318 20.5635L20.6276 14.3321ZM20.2303 23.4233L24.5546 20.4607L22.0921 27.0559L20.2303 23.4233ZM26.6306 34.801L24.5451 31.1205L29.7224 27.4233L26.6306 34.801ZM28.2554 37.4155L31.7947 29.7877L34.6736 33.7135L28.2554 37.4155ZM52.1358 31.2833H43.76V24.1041H52.1358V31.2833ZM1.88153 51.6242H0.685059V54.0173H19.8295V51.6242H17.4365V48.0347H19.8295V45.6417H0.685059V48.0347H3.07812V51.6242H1.88153Z" fill="#474747"/>
</g>
<defs>
<clipPath id="clip0_161_914">
<rect width="60" height="60" fill="white"/>
</clipPath>
</defs>
</svg>
